<svg xmlns="http://www.w3.org/2000/svg" xmlns:xlink="http://www.w3.org/1999/xlink" version="1.1" x="0px" y="0px" viewBox="0 0 160 160" style="enable-background:new 0 0 160 160;" xml:space="preserve"><g><g><path fill="white" d="M81.8,155c-1.1,0-2-0.9-2-2l0,0c0-1.1,0.8-2,2-2v0c1.1,0,2,0.8,2,2l0,0C83.8,154,82.9,155,81.8,155L81.8,155    C81.8,155,81.8,155,81.8,155z M70.6,154.4c-1.1-0.1-1.9-1.1-1.7-2.2l0,0c0.1-1.1,1.1-1.9,2.2-1.7l0,0c1.1,0.1,1.9,1.1,1.7,2.2l0,0    c-0.1,1-1,1.8-2,1.8l0,0C70.8,154.4,70.7,154.4,70.6,154.4z M90.6,152.2c-0.2-1.1,0.5-2.1,1.6-2.3l0,0c1.1-0.2,2.1,0.5,2.3,1.6    l0,0c0.2,1.1-0.5,2.1-1.6,2.3l0,0l0,0l0,0c-0.1,0-0.2,0-0.4,0l0,0C91.6,153.9,90.8,153.2,90.6,152.2z M59.6,152.2L59.6,152.2    L59.6,152.2c-1.1-0.3-1.7-1.4-1.4-2.5l0,0c0.3-1.1,1.4-1.7,2.5-1.4l0,0c1.1,0.3,1.7,1.4,1.4,2.5l0,0c-0.3,0.9-1,1.5-1.9,1.5l0,0    C60,152.2,59.8,152.2,59.6,152.2z M101.3,149.9c-0.3-1,0.2-2.2,1.3-2.5l0,0c1-0.4,2.2,0.2,2.5,1.3l0,0c0.4,1-0.2,2.2-1.3,2.5l0,0    c0,0,0,0,0,0l0,0c-0.2,0.1-0.4,0.1-0.6,0.1l0,0C102.3,151.2,101.5,150.7,101.3,149.9z M49.1,148.3c-1-0.5-1.5-1.6-1-2.6l0,0    c0.5-1,1.6-1.5,2.6-1l0,0c1,0.5,1.5,1.6,1,2.6l0,0c-0.3,0.7-1.1,1.2-1.8,1.2l0,0C49.6,148.5,49.3,148.5,49.1,148.3z M111.4,145.9    c-0.5-1-0.1-2.2,0.9-2.7l0,0c1-0.5,2.2-0.1,2.7,0.9l0,0c0.5,1,0.1,2.2-0.9,2.7l0,0c-0.3,0.1-0.6,0.2-0.9,0.2l0,0    C112.5,147,111.8,146.6,111.4,145.9z M39.2,143L39.2,143L39.2,143c-0.9-0.6-1.2-1.8-0.6-2.8l0,0c0.6-0.9,1.8-1.2,2.8-0.6l0,0    c0.9,0.6,1.2,1.8,0.6,2.8l0,0c-0.4,0.6-1,0.9-1.7,0.9l0,0C40,143.3,39.6,143.2,39.2,143z M120.9,140.5c-0.6-0.9-0.4-2.2,0.5-2.8    l0,0c0.9-0.6,2.1-0.4,2.8,0.5l0,0c0.6,0.9,0.4,2.2-0.5,2.8l0,0l0,0l0,0c-0.4,0.3-0.8,0.4-1.2,0.4l0,0    C121.9,141.3,121.3,141,120.9,140.5z M30.3,136.2c-0.8-0.7-0.9-2-0.2-2.8l0,0c0.7-0.8,2-0.9,2.8-0.2l0,0c0.8,0.7,0.9,2,0.2,2.8    l0,0c-0.4,0.5-0.9,0.7-1.5,0.7l0,0C31.2,136.7,30.7,136.5,30.3,136.2z M129.5,133.7c-0.8-0.8-0.8-2.1,0-2.8h0c0.8-0.8,2-0.8,2.8,0    l0,0c0.8,0.8,0.8,2.1,0,2.8l0,0l0,0l0,0c-0.4,0.4-0.9,0.6-1.4,0.6l0,0C130.4,134.3,129.8,134.1,129.5,133.7z M22.5,128.1    c-0.7-0.8-0.6-2.1,0.3-2.8l0,0c0.8-0.7,2.1-0.6,2.8,0.3l0,0c0.7,0.8,0.6,2.1-0.3,2.8l0,0c-0.4,0.3-0.8,0.5-1.3,0.5l0,0    C23.5,128.9,22.9,128.6,22.5,128.1z M136.9,125.7c-0.9-0.7-1-1.9-0.4-2.8l0,0c0.7-0.9,1.9-1,2.8-0.4l0,0c0.9,0.7,1,1.9,0.4,2.8    l0,0c0,0,0,0,0,0l0,0c-0.4,0.5-1,0.8-1.6,0.8l0,0C137.7,126.2,137.3,126,136.9,125.7z M16,119c-0.6-1-0.3-2.2,0.7-2.8l0,0    c0.9-0.6,2.2-0.3,2.8,0.7l0,0c0.6,0.9,0.3,2.2-0.7,2.7l0,0c-0.3,0.2-0.7,0.3-1,0.3l0,0C17,120,16.4,119.7,16,119z M143.1,116.8    c-1-0.5-1.3-1.7-0.8-2.7l0,0c0.5-1,1.8-1.3,2.7-0.8l0,0c1,0.5,1.3,1.7,0.8,2.7l0,0c0,0,0,0,0,0l0,0c-0.4,0.7-1,1-1.8,1l0,0    C143.7,117,143.4,116.9,143.1,116.8z M10.9,109.1c-0.4-1,0-2.2,1.1-2.6l0,0c1-0.4,2.2,0,2.6,1.1l0,0c0.4,1,0,2.2-1.1,2.6l0,0    c-0.3,0.1-0.5,0.2-0.8,0.2l0,0C11.9,110.3,11.2,109.8,10.9,109.1z M147.9,107c-1-0.4-1.6-1.5-1.2-2.6l0,0c0.4-1,1.5-1.6,2.6-1.2    l0,0c1,0.4,1.6,1.5,1.2,2.6l0,0c-0.3,0.8-1.1,1.3-1.9,1.3l0,0C148.3,107.1,148.1,107,147.9,107z M7.3,98.4C7,97.4,7.7,96.3,8.7,96    l0,0c1.1-0.3,2.2,0.4,2.4,1.5l0,0c0.3,1.1-0.4,2.2-1.4,2.4l0,0c-0.2,0-0.3,0.1-0.5,0.1l0,0C8.3,99.9,7.5,99.3,7.3,98.4z     M151.1,96.5c-1.1-0.2-1.8-1.3-1.6-2.4l0,0c0,0,0,0,0,0l0,0c0,0,0,0,0-0.1l0,0c0.2-1.1,1.3-1.8,2.4-1.6l0,0    c1.1,0.2,1.8,1.3,1.6,2.4l0,0c0,0,0,0,0,0l0,0c0,0,0,0,0,0.1l0,0l0,0l0,0c-0.2,0.9-1,1.6-2,1.6l0,0    C151.4,96.6,151.3,96.6,151.1,96.5z M5.4,87.4c-0.1-1.1,0.7-2.1,1.8-2.2l0,0c1.1-0.1,2.1,0.7,2.2,1.8l0,0c0.1,1.1-0.7,2.1-1.8,2.2    l0,0c-0.1,0-0.1,0-0.2,0l0,0C6.3,89.2,5.5,88.4,5.4,87.4z M152.8,85.6c-1.1-0.1-1.9-1-1.9-2.1h0c0-1.1,1-1.9,2.1-1.9l0,0    c1.1,0.1,2,1,1.9,2.1l0,0c-0.1,1.1-0.9,1.9-2,1.9l0,0C152.9,85.6,152.8,85.6,152.8,85.6z M7,78.3c-1.1-0.1-1.9-1-1.9-2.1l0,0l0,0    l0,0c0.1-1.1,1-1.9,2.1-1.9l0,0c1.1,0,2,1,1.9,2.1l0,0c0,1.1-0.9,1.9-2,1.9l0,0C7.1,78.3,7,78.3,7,78.3z M150.7,72.9    c-0.1-1.1,0.7-2.1,1.8-2.2l0,0c1.1-0.1,2.1,0.7,2.2,1.8l0,0c0.1,1.1-0.7,2.1-1.8,2.2l0,0c-0.1,0-0.1,0-0.2,0l0,0    C151.6,74.7,150.8,74,150.7,72.9z M8.1,67.4c-1.1-0.2-1.8-1.3-1.6-2.4l0,0l0,0l0,0c0.2-1.1,1.3-1.8,2.4-1.6l0,0    c1.1,0.2,1.8,1.3,1.6,2.4l0,0c-0.2,1-1,1.6-2,1.6l0,0C8.3,67.5,8.2,67.5,8.1,67.4z M148.8,62.5L148.8,62.5    c-0.3-1.1,0.4-2.2,1.4-2.4l0,0c1.1-0.3,2.2,0.4,2.4,1.4l0,0c0.3,1.1-0.4,2.2-1.4,2.4l0,0c-0.2,0-0.3,0.1-0.5,0.1l0,0    C149.9,64,149,63.4,148.8,62.5z M10.7,56.9c-1-0.4-1.6-1.5-1.2-2.6l0,0l0,0l0,0c0.4-1,1.5-1.6,2.6-1.2l0,0c1,0.4,1.6,1.5,1.2,2.6    l0,0C13,56.5,12.2,57,11.4,57l0,0C11.2,57,11,57,10.7,56.9z M145.4,52.4c-0.4-1,0-2.2,1.1-2.6l0,0c1-0.4,2.2,0,2.6,1.1l0,0    c0.4,1,0,2.2-1.1,2.6l0,0c-0.3,0.1-0.5,0.2-0.8,0.2l0,0C146.5,53.7,145.7,53.2,145.4,52.4z M15,46.8c-1-0.5-1.3-1.8-0.8-2.7l0,0    c0.5-1,1.7-1.3,2.7-0.8l0,0c1,0.5,1.3,1.8,0.8,2.7l0,0c-0.4,0.7-1,1-1.8,1l0,0C15.6,47,15.3,47,15,46.8z M140.6,43L140.6,43    c-0.6-0.9-0.3-2.2,0.7-2.7l0,0c0.9-0.6,2.2-0.3,2.8,0.7l0,0c0.6,0.9,0.3,2.2-0.7,2.8l0,0c-0.3,0.2-0.7,0.3-1,0.3l0,0    C141.6,44,141,43.6,140.6,43z M20.6,37.5c-0.9-0.7-1-1.9-0.4-2.8l0,0c0.7-0.9,1.9-1,2.8-0.4l0,0c0.9,0.7,1,1.9,0.4,2.8l0,0    c-0.4,0.5-1,0.8-1.6,0.8l0,0C21.4,37.9,21,37.8,20.6,37.5z M134.4,34.4c-0.7-0.9-0.6-2.1,0.3-2.8l0,0c0.8-0.7,2.1-0.6,2.8,0.3l0,0    c0.7,0.8,0.6,2.1-0.3,2.8l0,0c-0.4,0.3-0.8,0.5-1.3,0.5l0,0C135.4,35.1,134.8,34.9,134.4,34.4z M27.6,29.1c-0.8-0.8-0.8-2.1,0-2.8    l0,0c0.8-0.8,2.1-0.8,2.8,0l0,0c0.8,0.8,0.8,2.1,0,2.8l0,0c-0.4,0.4-0.9,0.6-1.4,0.6l0,0C28.5,29.7,28,29.5,27.6,29.1z M127,26.8    c-0.8-0.7-0.9-2-0.2-2.8l0,0c0.7-0.8,2-0.9,2.8-0.2l0,0c0.8,0.7,0.9,2,0.2,2.8l0,0c-0.4,0.4-1,0.7-1.5,0.7l0,0    C127.8,27.3,127.4,27.1,127,26.8z M35.8,21.9c-0.6-0.9-0.4-2.1,0.5-2.8l0,0c0.9-0.6,2.1-0.4,2.8,0.5l0,0c0.7,0.9,0.4,2.1-0.5,2.8    l0,0c-0.3,0.3-0.8,0.4-1.2,0.4l0,0C36.8,22.7,36.2,22.4,35.8,21.9z M118.5,20.4c-0.9-0.6-1.2-1.8-0.6-2.8l0,0    c0.6-0.9,1.8-1.2,2.8-0.6l0,0c0.9,0.6,1.2,1.8,0.6,2.8l0,0c-0.4,0.6-1,0.9-1.7,0.9l0,0C119.3,20.7,118.9,20.6,118.5,20.4z     M45,15.9c-0.5-1-0.1-2.2,0.9-2.7l0,0c1-0.5,2.2-0.1,2.7,0.9l0,0c0.5,1,0.1,2.2-0.9,2.7l0,0C47.4,17,47,17,46.7,17l0,0    C46,17,45.3,16.6,45,15.9z M109.2,15.3c-1-0.5-1.5-1.6-1-2.7l0,0c0.5-1,1.6-1.4,2.7-1l0,0c1,0.5,1.5,1.6,1,2.6l0,0    c-0.3,0.7-1.1,1.2-1.8,1.2l0,0C109.8,15.5,109.5,15.4,109.2,15.3z M54.9,11.4c-0.4-1,0.2-2.2,1.3-2.5l0,0c1-0.3,2.2,0.2,2.5,1.3    l0,0c0.3,1-0.2,2.2-1.3,2.5l0,0c-0.2,0.1-0.4,0.1-0.6,0.1l0,0C56,12.8,55.2,12.3,54.9,11.4z M99.3,11.7c-1.1-0.3-1.7-1.4-1.4-2.5    l0,0c0.3-1.1,1.4-1.7,2.5-1.4l0,0l0,0l0,0c1.1,0.3,1.7,1.4,1.4,2.5l0,0c-0.3,0.9-1,1.5-1.9,1.5l0,0C99.6,11.7,99.4,11.7,99.3,11.7    z M65.4,8.4c-0.2-1.1,0.5-2.1,1.6-2.3l0,0l0,0l0,0c1.1-0.2,2.1,0.5,2.3,1.6l0,0c0.2,1.1-0.5,2.1-1.6,2.3l0,0c-0.1,0-0.2,0-0.3,0    l0,0C66.4,10.1,65.5,9.4,65.4,8.4z M88.8,9.6c-1.1-0.1-1.9-1.1-1.7-2.2l0,0c0.1-1.1,1.1-1.9,2.2-1.7l0,0c1.1,0.1,1.9,1.1,1.7,2.2    l0,0c-0.1,1-1,1.8-2,1.8l0,0C89,9.6,88.9,9.6,88.8,9.6z M76.2,7.1c0-1.1,0.8-2,2-2l0,0c0,0,0,0,0,0l0,0c1.1,0,2,0.8,2,1.9l0,0    c0,1.1-0.8,2-2,2.1l0,0c0,0,0,0,0,0l0,0C77.1,9,76.2,8.2,76.2,7.1z"/></g><g><path fill="white" d="M78.5,141.1c0-1.1,0.9-2,2-2l0,0c1.1,0,2,0.9,2,2l0,0c0,1.1-0.9,2-2,2l0,0h0l0,0C79.4,143,78.5,142.2,78.5,141.1z     M69.3,142.1C69.3,142.1,69.3,142.1,69.3,142.1L69.3,142.1c-1.1-0.2-1.8-1.2-1.6-2.3l0,0c0.2-1.1,1.2-1.8,2.3-1.6l0,0    c1.1,0.2,1.8,1.2,1.6,2.3l0,0c-0.2,1-1,1.7-2,1.7l0,0C69.5,142.2,69.4,142.2,69.3,142.1z M89.5,140.4c-0.2-1.1,0.5-2.1,1.6-2.3    l0,0c1.1-0.2,2.1,0.5,2.3,1.6l0,0c0.2,1.1-0.5,2.1-1.6,2.3l0,0c-0.1,0-0.3,0-0.4,0l0,0C90.5,142,89.6,141.3,89.5,140.4z     M58.4,139.2c-1-0.4-1.6-1.5-1.2-2.6l0,0c0.4-1,1.5-1.6,2.6-1.2l0,0c1,0.4,1.6,1.5,1.2,2.6l0,0c-0.3,0.8-1.1,1.3-1.9,1.3l0,0    C58.8,139.4,58.6,139.3,58.4,139.2z M100.1,137.7c-0.4-1,0.1-2.2,1.1-2.6l0,0c1-0.4,2.2,0.1,2.6,1.1l0,0c0.4,1-0.1,2.2-1.2,2.6    l0,0c-0.2,0.1-0.5,0.1-0.7,0.1l0,0C101.1,139,100.4,138.5,100.1,137.7z M48.2,134.4c-1-0.5-1.3-1.8-0.7-2.7l0,0    c0.6-1,1.8-1.3,2.7-0.7l0,0c1,0.6,1.3,1.8,0.7,2.7l0,0c-0.4,0.6-1,1-1.7,1l0,0C48.8,134.7,48.5,134.6,48.2,134.4z M110,133.2    c-0.6-0.9-0.3-2.2,0.7-2.8l0,0c0.9-0.6,2.2-0.3,2.8,0.7l0,0c0.6,0.9,0.3,2.2-0.7,2.8l0,0c-0.3,0.2-0.7,0.3-1,0.3l0,0    C111.1,134.1,110.4,133.8,110,133.2z M39,127.9L39,127.9L39,127.9c-0.8-0.7-0.9-2-0.2-2.8l0,0c0.7-0.8,2-0.9,2.8-0.2l0,0    c0.8,0.7,0.9,2,0.2,2.8l0,0c-0.4,0.5-1,0.7-1.5,0.7l0,0C39.8,128.3,39.3,128.2,39,127.9z M119,126.9c-0.7-0.8-0.7-2.1,0.2-2.8l0,0    c0.8-0.7,2.1-0.7,2.8,0.2l0,0c0.7,0.8,0.7,2.1-0.2,2.8l0,0c0,0,0,0,0,0l0,0c-0.4,0.3-0.9,0.5-1.3,0.5l0,0    C120,127.6,119.5,127.4,119,126.9z M31.1,119.8c-0.7-0.9-0.6-2.1,0.3-2.8l0,0c0.9-0.7,2.1-0.6,2.8,0.3l0,0    c0.7,0.9,0.6,2.1-0.3,2.8l0,0c-0.4,0.3-0.8,0.4-1.3,0.4l0,0C32,120.5,31.5,120.2,31.1,119.8z M126.8,119.2c-0.9-0.7-1-1.9-0.3-2.8    l0,0c0.7-0.9,1.9-1,2.8-0.3l0,0c0.9,0.7,1,1.9,0.3,2.8l0,0c-0.4,0.5-1,0.8-1.6,0.8l0,0C127.6,119.7,127.2,119.5,126.8,119.2z     M24.8,110.4L24.8,110.4L24.8,110.4c-0.5-1-0.2-2.2,0.8-2.7l0,0c1-0.5,2.2-0.2,2.7,0.8l0,0c0.5,1,0.2,2.2-0.8,2.7l0,0    c-0.3,0.2-0.6,0.3-1,0.3l0,0C25.8,111.4,25.1,111.1,24.8,110.4z M133.1,110.2c-1-0.5-1.3-1.7-0.8-2.7l0,0c0.5-1,1.7-1.3,2.7-0.8    l0,0c1,0.5,1.3,1.7,0.8,2.7l0,0c-0.4,0.7-1,1.1-1.8,1.1l0,0C133.7,110.5,133.4,110.4,133.1,110.2z M20.2,100.1L20.2,100.1    L20.2,100.1c-0.4-1.1,0.2-2.2,1.3-2.5l0,0c1.1-0.4,2.2,0.2,2.5,1.3l0,0c0.4,1-0.2,2.2-1.3,2.5l0,0c-0.2,0.1-0.4,0.1-0.6,0.1l0,0    C21.3,101.4,20.5,100.9,20.2,100.1z M137.6,100.3c-1-0.3-1.6-1.5-1.3-2.5l0,0c0.3-1.1,1.5-1.6,2.5-1.3l0,0    c1.1,0.3,1.6,1.4,1.3,2.5l0,0l0,0l0,0c-0.3,0.8-1,1.4-1.9,1.4l0,0C138,100.4,137.8,100.4,137.6,100.3z M17.6,89.1    c-0.1-1.1,0.6-2.1,1.7-2.3l0,0c1.1-0.2,2.1,0.6,2.3,1.7l0,0c0.2,1.1-0.6,2.1-1.7,2.3l0,0c-0.1,0-0.2,0-0.3,0l0,0    C18.6,90.8,17.7,90.1,17.6,89.1z M140.3,89.7c-1.1-0.1-1.9-1.1-1.7-2.2l0,0c0,0,0,0,0-0.1l0,0c0,0,0-0.1,0-0.1l0,0    c0.1-1.1,1.1-1.9,2.2-1.7l0,0c1.1,0.1,1.9,1.1,1.7,2.2l0,0l0,0l0,0c0,0,0,0,0,0.1l0,0c0,0,0,0.1,0,0.1l0,0l0,0l0,0    c-0.1,1-1,1.7-2,1.7l0,0C140.5,89.7,140.4,89.7,140.3,89.7z M18.9,79.9c-1.1,0-2-1-1.9-2.1l0,0c0,0,0,0,0,0l0,0c0-1.1,1-2,2.1-1.9    l0,0c1.1,0,2,1,1.9,2.1l0,0C21,79,20.1,79.9,18.9,79.9L18.9,79.9C19,79.9,18.9,79.9,18.9,79.9z M139,76.7    c-0.1-1.1,0.8-2.1,1.9-2.1l0,0c1.1-0.1,2.1,0.8,2.1,1.9l0,0c0.1,1.1-0.8,2.1-1.9,2.1l0,0c0,0-0.1,0-0.1,0l0,0    C139.9,78.6,139,77.8,139,76.7z M19.9,69c-1.1-0.2-1.8-1.3-1.5-2.4l0,0c0.2-1.1,1.3-1.8,2.4-1.5l0,0c1.1,0.2,1.8,1.3,1.5,2.4l0,0    c-0.2,0.9-1,1.6-1.9,1.6l0,0C20.2,69,20.1,69,19.9,69z M137.4,66.2L137.4,66.2c-0.3-1.1,0.4-2.1,1.5-2.4l0,0    c1.1-0.3,2.2,0.4,2.4,1.5l0,0c0.3,1.1-0.4,2.1-1.5,2.4l0,0c-0.2,0-0.3,0.1-0.5,0.1l0,0C138.5,67.8,137.7,67.1,137.4,66.2z     M22.9,58.4c-1-0.4-1.5-1.6-1.1-2.6l0,0c0.4-1,1.6-1.5,2.6-1.1l0,0c1,0.4,1.5,1.6,1.1,2.6l0,0c-0.3,0.8-1.1,1.2-1.8,1.2l0,0    C23.4,58.6,23.1,58.5,22.9,58.4z M134,56.2L134,56.2c-0.4-1,0-2.2,1-2.6l0,0c1-0.5,2.2,0,2.6,1l0,0c0,0,0,0,0,0l0,0    c0.4,1,0,2.2-1,2.6l0,0c-0.3,0.1-0.5,0.2-0.8,0.2l0,0C135.1,57.4,134.4,56.9,134,56.2z M27.6,48.6c-0.9-0.6-1.2-1.8-0.6-2.8l0,0    c0.6-0.9,1.8-1.2,2.8-0.6l0,0c0.9,0.6,1.2,1.8,0.6,2.8l0,0c-0.4,0.6-1,0.9-1.7,0.9l0,0C28.3,48.9,28,48.8,27.6,48.6z M128.9,46.9    L128.9,46.9c-0.6-0.9-0.4-2.2,0.5-2.8l0,0c0.9-0.6,2.2-0.4,2.8,0.5l0,0l0,0l0,0c0.6,0.9,0.4,2.2-0.5,2.8l0,0    c-0.3,0.2-0.7,0.4-1.1,0.4l0,0C129.9,47.8,129.3,47.5,128.9,46.9z M34.1,39.7c-0.8-0.8-0.8-2-0.1-2.8l0,0l0,0l0,0    c0.8-0.8,2-0.8,2.8-0.1l0,0c0.8,0.8,0.8,2,0.1,2.8l0,0c-0.4,0.4-0.9,0.6-1.5,0.6l0,0C35,40.3,34.5,40.1,34.1,39.7z M122.2,38.7    c-0.8-0.8-0.8-2.1,0-2.8l0,0c0.8-0.8,2.1-0.8,2.8,0l0,0c0.8,0.8,0.8,2.1,0,2.8l0,0c-0.4,0.4-0.9,0.6-1.4,0.6l0,0    C123.2,39.3,122.6,39.1,122.2,38.7z M42,32.2c-0.7-0.9-0.5-2.1,0.4-2.8l0,0l0,0l0,0c0.9-0.7,2.1-0.5,2.8,0.4l0,0    c0.7,0.9,0.5,2.1-0.4,2.8l0,0C44.5,32.9,44,33,43.6,33l0,0C43,33,42.4,32.7,42,32.2z M114.2,31.9c-0.9-0.6-1.1-1.9-0.5-2.8l0,0    c0.6-0.9,1.9-1.1,2.8-0.5l0,0c0.9,0.6,1.1,1.9,0.5,2.8l0,0c-0.4,0.5-1,0.8-1.6,0.8l0,0C115,32.2,114.5,32.1,114.2,31.9z     M51.2,26.2c-0.5-1-0.1-2.2,0.9-2.7l0,0c1-0.5,2.2-0.1,2.7,0.9l0,0c0.5,1,0.1,2.2-0.9,2.7l0,0c-0.3,0.1-0.6,0.2-0.9,0.2l0,0    C52.2,27.3,51.5,26.9,51.2,26.2z M105.1,26.5L105.1,26.5c-1-0.5-1.4-1.7-1-2.7l0,0c0.5-1,1.7-1.4,2.7-1l0,0l0,0l0,0    c1,0.5,1.4,1.7,1,2.7l0,0c-0.3,0.7-1.1,1.1-1.8,1.1l0,0C105.6,26.7,105.3,26.6,105.1,26.5z M61.2,21.9c-0.3-1.1,0.3-2.2,1.4-2.5    l0,0c0,0,0,0,0,0l0,0c1.1-0.3,2.2,0.3,2.5,1.4l0,0c0.3,1.1-0.3,2.2-1.4,2.5l0,0c-0.2,0-0.4,0.1-0.5,0.1l0,0    C62.3,23.3,61.5,22.7,61.2,21.9z M95.1,22.9c-1.1-0.3-1.7-1.4-1.4-2.4l0,0c0.3-1.1,1.4-1.7,2.4-1.4l0,0c0,0,0,0,0,0l0,0    c1.1,0.3,1.7,1.4,1.4,2.4l0,0c-0.2,0.9-1,1.5-1.9,1.5l0,0C95.5,23,95.3,23,95.1,22.9z M71.9,19.4c-0.1-1.1,0.7-2.1,1.8-2.2l0,0    c1.1-0.1,2.1,0.7,2.2,1.8l0,0c0.1,1.1-0.7,2.1-1.8,2.2l0,0c-0.1,0-0.1,0-0.2,0l0,0C72.9,21.3,72,20.5,71.9,19.4z M84.7,21.1    c-1.1-0.1-1.9-1.1-1.8-2.2l0,0c0.1-1.1,1-1.9,2.1-1.8l0,0c1.1,0.1,1.9,1,1.8,2.2l0,0c-0.1,1-1,1.8-2,1.8l0,0    C84.8,21.1,84.7,21.1,84.7,21.1z"/></g><g><path fill="white" d="M80,92.9c-0.9,0-1.7-0.1-2.6-0.3C74,92,71.1,90,69.2,87.1c-1.9-2.9-2.6-6.3-1.9-9.7c0.7-3.4,2.7-6.3,5.5-8.2    s6.3-2.6,9.7-1.9c7,1.4,11.5,8.3,10.1,15.2C92,86,90,88.9,87.1,90.8C85,92.2,82.5,92.9,80,92.9z M80,70.1c-1.9,0-3.8,0.6-5.4,1.6    c-2.2,1.5-3.7,3.7-4.2,6.3s0,5.2,1.4,7.5c1.5,2.2,3.7,3.7,6.3,4.2c2.6,0.5,5.2,0,7.4-1.4s3.7-3.7,4.2-6.3l0,0    c1.1-5.4-2.4-10.6-7.7-11.7C81.3,70.1,80.6,70.1,80,70.1z"/></g><path fill="white" d="M109.7,86C109.7,86,109.7,86,109.7,86c3.3-16.4-7.3-32.4-23.6-35.7c-6.4-1.3-12.9-0.5-18.8,2.2c0.7,0.7,1.3,1.6,1.6,2.6   c3.5-1.6,7.2-2.4,11-2.4c1.8,0,3.7,0.2,5.5,0.6c14.7,3,24.3,17.4,21.3,32.2c-3,14.7-17.4,24.3-32.2,21.3   c-14.7-3-24.3-17.4-21.3-32.2c0.7-3.4,2-6.5,3.8-9.4c-0.9-0.5-1.6-1.2-2.3-2c-2.2,3.2-3.7,6.9-4.5,10.8   C47,90.3,57.6,106.3,74,109.7c2,0.4,4.1,0.6,6.1,0.6C94.1,110.3,106.7,100.4,109.7,86z"/><path fill="white" d="M119.9,54c-6.7-10.6-17.1-17.9-29.3-20.6c-25.2-5.7-50.3,10.2-56,35.4C31.9,81,34,93.5,40.7,104.1   c6.7,10.6,17.1,17.9,29.3,20.6c3.4,0.8,6.9,1.1,10.3,1.1c7.9,0,15.5-2,22.2-5.7c-0.7-0.7-1.3-1.6-1.7-2.5   c-8.9,4.8-19.6,6.5-30.2,4.1c-11.4-2.6-21.2-9.4-27.4-19.3c-6.2-9.9-8.3-21.6-5.7-33C42.9,45.9,66.4,31,90,36.3   c11.4,2.6,21.2,9.4,27.4,19.3c6.2,9.9,8.3,21.6,5.7,33c-1.6,6.9-4.7,13-8.8,18.1c0.5,0.3,0.9,0.7,1.3,1.1l0,0   c0.3,0.3,0.6,0.7,0.8,1c4.6-5.5,8-12.1,9.6-19.5C128.8,77.1,126.6,64.6,119.9,54z"/><path fill="white" d="M61.3,52.9c-2.9,0-5.2,2.3-5.2,5.2s2.3,5.2,5.2,5.2c2.9,0,5.2-2.3,5.2-5.2S64.2,52.9,61.3,52.9z M61.3,60.4   c-1.2,0-2.2-1-2.2-2.2s1-2.2,2.2-2.2s2.2,1,2.2,2.2S62.5,60.4,61.3,60.4z"/><path fill="white" d="M113.3,109.9c-1.1-1.2-2.6-1.8-4.2-1.8c-3.3-0.1-6,2.6-6.1,5.9c0,1.6,0.6,3.1,1.7,4.3c1.1,1.2,2.6,1.8,4.2,1.8   c0,0,0.1,0,0.1,0c3.2,0,5.9-2.6,6-5.9C115,112.6,114.5,111.1,113.3,109.9z M109,117c-0.8,0-1.5-0.3-2.1-0.9   c-0.5-0.6-0.8-1.3-0.8-2.1c0-1.6,1.4-2.9,3-2.9c0,0,0,0,0.1,0c0.8,0,1.5,0.3,2.1,0.9c0.5,0.6,0.8,1.3,0.8,2.1   C112,115.8,110.6,117.1,109,117z"/></g></svg>