<svg xmlns="http://www.w3.org/2000/svg" viewBox="0 0 160 160" style="enable-background:new 0 0 160 160" xml:space="preserve"><path fill="#fff" d="M81.8 155c-1.1 0-2-.9-2-2s.8-2 2-2c1.1 0 2 .8 2 2 0 1-.9 2-2 2zm-11.2-.6c-1.1-.1-1.9-1.1-1.7-2.2.1-1.1 1.1-1.9 2.2-1.7 1.1.1 1.9 1.1 1.7 2.2-.1 1-1 1.8-2 1.8 0-.1-.1-.1-.2-.1zm20-2.2c-.2-1.1.5-2.1 1.6-2.3 1.1-.2 2.1.5 2.3 1.6.2 1.1-.5 2.1-1.6 2.3h-.4c-.9.1-1.7-.6-1.9-1.6zm-31 0c-1.1-.3-1.7-1.4-1.4-2.5.3-1.1 1.4-1.7 2.5-1.4 1.1.3 1.7 1.4 1.4 2.5-.3.9-1 1.5-1.9 1.5-.2-.1-.4-.1-.6-.1zm41.7-2.3c-.3-1 .2-2.2 1.3-2.5 1-.4 2.2.2 2.5 1.3.4 1-.2 2.2-1.3 2.5-.2.1-.4.1-.6.1-.9-.1-1.7-.6-1.9-1.4zm-52.2-1.6c-1-.5-1.5-1.6-1-2.6s1.6-1.5 2.6-1 1.5 1.6 1 2.6c-.3.7-1.1 1.2-1.8 1.2-.3 0-.6 0-.8-.2zm62.3-2.4c-.5-1-.1-2.2.9-2.7s2.2-.1 2.7.9.1 2.2-.9 2.7c-.3.1-.6.2-.9.2-.7 0-1.4-.4-1.8-1.1zM39.2 143c-.9-.6-1.2-1.8-.6-2.8.6-.9 1.8-1.2 2.8-.6.9.6 1.2 1.8.6 2.8-.4.6-1 .9-1.7.9-.3 0-.7-.1-1.1-.3zm81.7-2.5c-.6-.9-.4-2.2.5-2.8.9-.6 2.1-.4 2.8.5.6.9.4 2.2-.5 2.8-.4.3-.8.4-1.2.4-.6-.1-1.2-.4-1.6-.9zm-90.6-4.3c-.8-.7-.9-2-.2-2.8.7-.8 2-.9 2.8-.2.8.7.9 2 .2 2.8-.4.5-.9.7-1.5.7-.4 0-.9-.2-1.3-.5zm99.2-2.5c-.8-.8-.8-2.1 0-2.8.8-.8 2-.8 2.8 0 .8.8.8 2.1 0 2.8-.4.4-.9.6-1.4.6-.5 0-1.1-.2-1.4-.6zm-107-5.6c-.7-.8-.6-2.1.3-2.8.8-.7 2.1-.6 2.8.3.7.8.6 2.1-.3 2.8-.4.3-.8.5-1.3.5s-1.1-.3-1.5-.8zm114.4-2.4c-.9-.7-1-1.9-.4-2.8.7-.9 1.9-1 2.8-.4.9.7 1 1.9.4 2.8-.4.5-1 .8-1.6.8-.4.1-.8-.1-1.2-.4zM16 119c-.6-1-.3-2.2.7-2.8.9-.6 2.2-.3 2.8.7.6.9.3 2.2-.7 2.7-.3.2-.7.3-1 .3-.8.1-1.4-.2-1.8-.9zm127.1-2.2c-1-.5-1.3-1.7-.8-2.7.5-1 1.8-1.3 2.7-.8 1 .5 1.3 1.7.8 2.7-.4.7-1 1-1.8 1-.3 0-.6-.1-.9-.2zm-132.2-7.7c-.4-1 0-2.2 1.1-2.6 1-.4 2.2 0 2.6 1.1.4 1 0 2.2-1.1 2.6-.3.1-.5.2-.8.2-.8-.1-1.5-.6-1.8-1.3zm137-2.1c-1-.4-1.6-1.5-1.2-2.6.4-1 1.5-1.6 2.6-1.2 1 .4 1.6 1.5 1.2 2.6-.3.8-1.1 1.3-1.9 1.3-.3 0-.5-.1-.7-.1zM7.3 98.4c-.3-1 .4-2.1 1.4-2.4 1.1-.3 2.2.4 2.4 1.5.3 1.1-.4 2.2-1.4 2.4-.2 0-.3.1-.5.1-.9-.1-1.7-.7-1.9-1.6zm143.8-1.9c-1.1-.2-1.8-1.3-1.6-2.4V94c.2-1.1 1.3-1.8 2.4-1.6 1.1.2 1.8 1.3 1.6 2.4v.1c-.2.9-1 1.6-2 1.6-.1.1-.2.1-.4 0zM5.4 87.4c-.1-1.1.7-2.1 1.8-2.2 1.1-.1 2.1.7 2.2 1.8.1 1.1-.7 2.1-1.8 2.2h-.2c-1.1 0-1.9-.8-2-1.8zm147.4-1.8c-1.1-.1-1.9-1-1.9-2.1s1-1.9 2.1-1.9c1.1.1 2 1 1.9 2.1-.1 1.1-.9 1.9-2 1.9h-.1zM7 78.3c-1.1-.1-1.9-1-1.9-2.1.1-1.1 1-1.9 2.1-1.9s2 1 1.9 2.1c0 1.1-.9 1.9-2 1.9H7zm143.7-5.4c-.1-1.1.7-2.1 1.8-2.2 1.1-.1 2.1.7 2.2 1.8.1 1.1-.7 2.1-1.8 2.2h-.2c-1.1 0-1.9-.7-2-1.8zM8.1 67.4C7 67.2 6.3 66.1 6.5 65c.2-1.1 1.3-1.8 2.4-1.6 1.1.2 1.8 1.3 1.6 2.4-.2 1-1 1.6-2 1.6-.2.1-.3.1-.4 0zm140.7-4.9c-.3-1.1.4-2.2 1.4-2.4 1.1-.3 2.2.4 2.4 1.4.3 1.1-.4 2.2-1.4 2.4-.2 0-.3.1-.5.1-.8 0-1.7-.6-1.9-1.5zM10.7 56.9c-1-.4-1.6-1.5-1.2-2.6.4-1 1.5-1.6 2.6-1.2 1 .4 1.6 1.5 1.2 2.6-.3.8-1.1 1.3-1.9 1.3-.2 0-.4 0-.7-.1zm134.7-4.5c-.4-1 0-2.2 1.1-2.6 1-.4 2.2 0 2.6 1.1.4 1 0 2.2-1.1 2.6-.3.1-.5.2-.8.2-.7 0-1.5-.5-1.8-1.3zM15 46.8c-1-.5-1.3-1.8-.8-2.7.5-1 1.7-1.3 2.7-.8 1 .5 1.3 1.8.8 2.7-.4.7-1 1-1.8 1-.3 0-.6 0-.9-.2zM140.6 43c-.6-.9-.3-2.2.7-2.7.9-.6 2.2-.3 2.8.7.6.9.3 2.2-.7 2.8-.3.2-.7.3-1 .3-.8-.1-1.4-.5-1.8-1.1zm-120-5.5c-.9-.7-1-1.9-.4-2.8.7-.9 1.9-1 2.8-.4.9.7 1 1.9.4 2.8-.4.5-1 .8-1.6.8-.4 0-.8-.1-1.2-.4zm113.8-3.1c-.7-.9-.6-2.1.3-2.8.8-.7 2.1-.6 2.8.3.7.8.6 2.1-.3 2.8-.4.3-.8.5-1.3.5-.5-.1-1.1-.3-1.5-.8zM27.6 29.1c-.8-.8-.8-2.1 0-2.8.8-.8 2.1-.8 2.8 0 .8.8.8 2.1 0 2.8-.4.4-.9.6-1.4.6-.5 0-1-.2-1.4-.6zm99.4-2.3c-.8-.7-.9-2-.2-2.8.7-.8 2-.9 2.8-.2.8.7.9 2 .2 2.8-.4.4-1 .7-1.5.7s-.9-.2-1.3-.5zm-91.2-4.9c-.6-.9-.4-2.1.5-2.8.9-.6 2.1-.4 2.8.5.7.9.4 2.1-.5 2.8-.3.3-.8.4-1.2.4-.6-.1-1.2-.4-1.6-.9zm82.7-1.5c-.9-.6-1.2-1.8-.6-2.8.6-.9 1.8-1.2 2.8-.6.9.6 1.2 1.8.6 2.8-.4.6-1 .9-1.7.9-.3 0-.7-.1-1.1-.3zM45 15.9c-.5-1-.1-2.2.9-2.7s2.2-.1 2.7.9.1 2.2-.9 2.7c-.3.2-.7.2-1 .2-.7 0-1.4-.4-1.7-1.1zm64.2-.6c-1-.5-1.5-1.6-1-2.7.5-1 1.6-1.4 2.7-1 1 .5 1.5 1.6 1 2.6-.3.7-1.1 1.2-1.8 1.2-.3.1-.6 0-.9-.1zm-54.3-3.9c-.4-1 .2-2.2 1.3-2.5 1-.3 2.2.2 2.5 1.3.3 1-.2 2.2-1.3 2.5-.2.1-.4.1-.6.1-.8 0-1.6-.5-1.9-1.4zm44.4.3c-1.1-.3-1.7-1.4-1.4-2.5.3-1.1 1.4-1.7 2.5-1.4 1.1.3 1.7 1.4 1.4 2.5-.3.9-1 1.5-1.9 1.5-.3-.1-.5-.1-.6-.1zM65.4 8.4c-.2-1.1.5-2.1 1.6-2.3 1.1-.2 2.1.5 2.3 1.6.2 1.1-.5 2.1-1.6 2.3h-.3c-1 .1-1.9-.6-2-1.6zm23.4 1.2c-1.1-.1-1.9-1.1-1.7-2.2.1-1.1 1.1-1.9 2.2-1.7 1.1.1 1.9 1.1 1.7 2.2-.1 1-1 1.8-2 1.8 0-.1-.1-.1-.2-.1zM76.2 7.1c0-1.1.8-2 2-2 1.1 0 2 .8 2 1.9 0 1.1-.8 2-2 2.1-1.1-.1-2-.9-2-2zm2.3 134c0-1.1.9-2 2-2s2 .9 2 2-.9 2-2 2c-1.1-.1-2-.9-2-2zm-9.2 1c-1.1-.2-1.8-1.2-1.6-2.3.2-1.1 1.2-1.8 2.3-1.6 1.1.2 1.8 1.2 1.6 2.3-.2 1-1 1.7-2 1.7-.1 0-.2 0-.3-.1zm20.2-1.7c-.2-1.1.5-2.1 1.6-2.3 1.1-.2 2.1.5 2.3 1.6.2 1.1-.5 2.1-1.6 2.3h-.4c-.9 0-1.8-.7-1.9-1.6zm-31.1-1.2c-1-.4-1.6-1.5-1.2-2.6.4-1 1.5-1.6 2.6-1.2 1 .4 1.6 1.5 1.2 2.6-.3.8-1.1 1.3-1.9 1.3-.3.1-.5 0-.7-.1zm41.7-1.5c-.4-1 .1-2.2 1.1-2.6 1-.4 2.2.1 2.6 1.1.4 1-.1 2.2-1.2 2.6-.2.1-.5.1-.7.1-.8.1-1.5-.4-1.8-1.2zm-51.9-3.3c-1-.5-1.3-1.8-.7-2.7.6-1 1.8-1.3 2.7-.7 1 .6 1.3 1.8.7 2.7-.4.6-1 1-1.7 1-.4 0-.7-.1-1-.3zm61.8-1.2c-.6-.9-.3-2.2.7-2.8.9-.6 2.2-.3 2.8.7.6.9.3 2.2-.7 2.8-.3.2-.7.3-1 .3-.7-.1-1.4-.4-1.8-1zm-71-5.3c-.8-.7-.9-2-.2-2.8.7-.8 2-.9 2.8-.2.8.7.9 2 .2 2.8-.4.5-1 .7-1.5.7-.5-.1-1-.2-1.3-.5zm80-1c-.7-.8-.7-2.1.2-2.8.8-.7 2.1-.7 2.8.2.7.8.7 2.1-.2 2.8-.4.3-.9.5-1.3.5-.5 0-1-.2-1.5-.7zm-87.9-7.1c-.7-.9-.6-2.1.3-2.8.9-.7 2.1-.6 2.8.3.7.9.6 2.1-.3 2.8-.4.3-.8.4-1.3.4-.6 0-1.1-.3-1.5-.7zm95.7-.6c-.9-.7-1-1.9-.3-2.8.7-.9 1.9-1 2.8-.3.9.7 1 1.9.3 2.8-.4.5-1 .8-1.6.8-.4 0-.8-.2-1.2-.5zm-102-8.8c-.5-1-.2-2.2.8-2.7s2.2-.2 2.7.8.2 2.2-.8 2.7c-.3.2-.6.3-1 .3-.7-.1-1.4-.4-1.7-1.1zm108.3-.2c-1-.5-1.3-1.7-.8-2.7.5-1 1.7-1.3 2.7-.8 1 .5 1.3 1.7.8 2.7-.4.7-1 1.1-1.8 1.1-.3 0-.6-.1-.9-.3zM20.2 100.1c-.4-1.1.2-2.2 1.3-2.5 1.1-.4 2.2.2 2.5 1.3.4 1-.2 2.2-1.3 2.5-.2.1-.4.1-.6.1-.8-.1-1.6-.6-1.9-1.4zm117.4.2c-1-.3-1.6-1.5-1.3-2.5.3-1.1 1.5-1.6 2.5-1.3 1.1.3 1.6 1.4 1.3 2.5-.3.8-1 1.4-1.9 1.4-.2 0-.4 0-.6-.1zm-120-11.2c-.1-1.1.6-2.1 1.7-2.3 1.1-.2 2.1.6 2.3 1.7.2 1.1-.6 2.1-1.7 2.3h-.3c-1 0-1.9-.7-2-1.7zm122.7.6c-1.1-.1-1.9-1.1-1.7-2.2v-.2c.1-1.1 1.1-1.9 2.2-1.7 1.1.1 1.9 1.1 1.7 2.2v.2c-.1 1-1 1.7-2 1.7h-.2zM18.9 79.9c-1.1 0-2-1-1.9-2.1 0-1.1 1-2 2.1-1.9 1.1 0 2 1 1.9 2.1 0 1-.9 1.9-2.1 1.9.1 0 0 0 0 0zM139 76.7c-.1-1.1.8-2.1 1.9-2.1 1.1-.1 2.1.8 2.1 1.9.1 1.1-.8 2.1-1.9 2.1h-.1c-1.1 0-2-.8-2-1.9zM19.9 69c-1.1-.2-1.8-1.3-1.5-2.4.2-1.1 1.3-1.8 2.4-1.5 1.1.2 1.8 1.3 1.5 2.4-.2.9-1 1.6-1.9 1.6-.2-.1-.3-.1-.5-.1zm117.5-2.8c-.3-1.1.4-2.1 1.5-2.4 1.1-.3 2.2.4 2.4 1.5.3 1.1-.4 2.1-1.5 2.4-.2 0-.3.1-.5.1-.8 0-1.6-.7-1.9-1.6zM22.9 58.4c-1-.4-1.5-1.6-1.1-2.6.4-1 1.6-1.5 2.6-1.1 1 .4 1.5 1.6 1.1 2.6-.3.8-1.1 1.2-1.8 1.2-.3.1-.6 0-.8-.1zM134 56.2c-.4-1 0-2.2 1-2.6 1-.5 2.2 0 2.6 1 .4 1 0 2.2-1 2.6-.3.1-.5.2-.8.2-.7 0-1.4-.5-1.8-1.2zM27.6 48.6c-.9-.6-1.2-1.8-.6-2.8.6-.9 1.8-1.2 2.8-.6.9.6 1.2 1.8.6 2.8-.4.6-1 .9-1.7.9-.4 0-.7-.1-1.1-.3zm101.3-1.7c-.6-.9-.4-2.2.5-2.8.9-.6 2.2-.4 2.8.5.6.9.4 2.2-.5 2.8-.3.2-.7.4-1.1.4-.7 0-1.3-.3-1.7-.9zm-94.8-7.2c-.8-.8-.8-2-.1-2.8.8-.8 2-.8 2.8-.1.8.8.8 2 .1 2.8-.4.4-.9.6-1.5.6-.4.1-.9-.1-1.3-.5zm88.1-1c-.8-.8-.8-2.1 0-2.8.8-.8 2.1-.8 2.8 0 .8.8.8 2.1 0 2.8-.4.4-.9.6-1.4.6-.4 0-1-.2-1.4-.6zM42 32.2c-.7-.9-.5-2.1.4-2.8.9-.7 2.1-.5 2.8.4.7.9.5 2.1-.4 2.8-.3.3-.8.4-1.2.4-.6 0-1.2-.3-1.6-.8zm72.2-.3c-.9-.6-1.1-1.9-.5-2.8.6-.9 1.9-1.1 2.8-.5.9.6 1.1 1.9.5 2.8-.4.5-1 .8-1.6.8-.4 0-.9-.1-1.2-.3zm-63-5.7c-.5-1-.1-2.2.9-2.7s2.2-.1 2.7.9.1 2.2-.9 2.7c-.3.1-.6.2-.9.2-.8 0-1.5-.4-1.8-1.1zm53.9.3c-1-.5-1.4-1.7-1-2.7.5-1 1.7-1.4 2.7-1 1 .5 1.4 1.7 1 2.7-.3.7-1.1 1.1-1.8 1.1-.4.1-.7 0-.9-.1zm-43.9-4.6c-.3-1.1.3-2.2 1.4-2.5 1.1-.3 2.2.3 2.5 1.4.3 1.1-.3 2.2-1.4 2.5-.2 0-.4.1-.5.1-.9-.1-1.7-.7-2-1.5zm33.9 1c-1.1-.3-1.7-1.4-1.4-2.4.3-1.1 1.4-1.7 2.4-1.4 1.1.3 1.7 1.4 1.4 2.4-.2.9-1 1.5-1.9 1.5-.1 0-.3 0-.5-.1zm-23.2-3.5c-.1-1.1.7-2.1 1.8-2.2 1.1-.1 2.1.7 2.2 1.8.1 1.1-.7 2.1-1.8 2.2h-.2c-1 .1-1.9-.7-2-1.8zm12.8 1.7c-1.1-.1-1.9-1.1-1.8-2.2.1-1.1 1-1.9 2.1-1.8 1.1.1 1.9 1 1.8 2.2-.1 1-1 1.8-2 1.8h-.1zM80 92.9c-.9 0-1.7-.1-2.6-.3-3.4-.6-6.3-2.6-8.2-5.5-1.9-2.9-2.6-6.3-1.9-9.7.7-3.4 2.7-6.3 5.5-8.2s6.3-2.6 9.7-1.9c7 1.4 11.5 8.3 10.1 15.2-.6 3.5-2.6 6.4-5.5 8.3-2.1 1.4-4.6 2.1-7.1 2.1zm0-22.8c-1.9 0-3.8.6-5.4 1.6-2.2 1.5-3.7 3.7-4.2 6.3s0 5.2 1.4 7.5c1.5 2.2 3.7 3.7 6.3 4.2 2.6.5 5.2 0 7.4-1.4s3.7-3.7 4.2-6.3c1.1-5.4-2.4-10.6-7.7-11.7-.7-.2-1.4-.2-2-.2z"/><path fill="#fff" d="M109.7 86c3.3-16.4-7.3-32.4-23.6-35.7-6.4-1.3-12.9-.5-18.8 2.2.7.7 1.3 1.6 1.6 2.6 3.5-1.6 7.2-2.4 11-2.4 1.8 0 3.7.2 5.5.6 14.7 3 24.3 17.4 21.3 32.2-3 14.7-17.4 24.3-32.2 21.3-14.7-3-24.3-17.4-21.3-32.2.7-3.4 2-6.5 3.8-9.4-.9-.5-1.6-1.2-2.3-2-2.2 3.2-3.7 6.9-4.5 10.8-3.2 16.3 7.4 32.3 23.8 35.7 2 .4 4.1.6 6.1.6 14 0 26.6-9.9 29.6-24.3z"/><path fill="#fff" d="M119.9 54c-6.7-10.6-17.1-17.9-29.3-20.6-25.2-5.7-50.3 10.2-56 35.4-2.7 12.2-.6 24.7 6.1 35.3 6.7 10.6 17.1 17.9 29.3 20.6 3.4.8 6.9 1.1 10.3 1.1 7.9 0 15.5-2 22.2-5.7-.7-.7-1.3-1.6-1.7-2.5-8.9 4.8-19.6 6.5-30.2 4.1-11.4-2.6-21.2-9.4-27.4-19.3-6.2-9.9-8.3-21.6-5.7-33C42.9 45.9 66.4 31 90 36.3c11.4 2.6 21.2 9.4 27.4 19.3 6.2 9.9 8.3 21.6 5.7 33-1.6 6.9-4.7 13-8.8 18.1.5.3.9.7 1.3 1.1.3.3.6.7.8 1 4.6-5.5 8-12.1 9.6-19.5 2.8-12.2.6-24.7-6.1-35.3z"/><path fill="#fff" d="M61.3 52.9c-2.9 0-5.2 2.3-5.2 5.2s2.3 5.2 5.2 5.2c2.9 0 5.2-2.3 5.2-5.2s-2.3-5.2-5.2-5.2zm0 7.5c-1.2 0-2.2-1-2.2-2.2s1-2.2 2.2-2.2 2.2 1 2.2 2.2-1 2.2-2.2 2.2zm52 49.5c-1.1-1.2-2.6-1.8-4.2-1.8-3.3-.1-6 2.6-6.1 5.9 0 1.6.6 3.1 1.7 4.3 1.1 1.2 2.6 1.8 4.2 1.8h.1c3.2 0 5.9-2.6 6-5.9 0-1.6-.5-3.1-1.7-4.3zM109 117c-.8 0-1.5-.3-2.1-.9-.5-.6-.8-1.3-.8-2.1 0-1.6 1.4-2.9 3-2.9h.1c.8 0 1.5.3 2.1.9.5.6.8 1.3.8 2.1-.1 1.7-1.5 3-3.1 2.9z"/></svg>